<svg width="24" height="24" viewBox="0 0 24 24" fill="none" xmlns="http://www.w3.org/2000/svg">
<path d="M16 14C15.2935 14 14.6442 14.2443 14.1316 14.653L10.9289 12.6513C11.0237 12.2223 11.0237 11.7777 10.9289 11.3487L14.1316 9.347C14.6442 9.75566 15.2935 10 16 10C17.6568 10 19 8.65684 19 7C19 5.34316 17.6568 4 16 4C14.3432 4 13 5.34316 13 7C13 7.22369 13.0247 7.44156 13.0711 7.65128L9.86844 9.65297C9.35584 9.24434 8.7065 9 8 9C6.34316 9 5 10.3432 5 12C5 13.6568 6.34316 15 8 15C8.7065 15 9.35584 14.7557 9.86844 14.347L13.0711 16.3487C13.0238 16.5626 12.9999 16.781 13 17C13 18.6568 14.3432 20 16 20C17.6568 20 19 18.6568 19 17C19 15.3432 17.6568 14 16 14Z" fill="#323232"/>
</svg>
